<?xml version="1.0" encoding="iso-8859-1"?>
<!-- Uploaded to: SVG Repo, www.svgrepo.com, Generator: SVG Repo Mixer Tools -->
<svg fill="#000000" height="800px" width="800px" version="1.1" id="Layer_1" xmlns="http://www.w3.org/2000/svg" xmlns:xlink="http://www.w3.org/1999/xlink" 
	 viewBox="0 0 511.999 511.999" xml:space="preserve">
<g>
	<g>
		<path d="M504.642,207.408l-44.917-4.491c-4.868-18.741-12.299-36.659-22.152-53.415l28.603-34.96
			c2.657-3.248,2.423-7.983-0.546-10.95L408.409,46.37c-2.969-2.967-7.701-3.205-10.951-0.546l-34.96,28.603
			c-16.757-9.853-34.673-17.285-53.415-22.152l-4.491-44.917c-0.418-4.178-3.933-7.359-8.13-7.359h-80.923
			c-4.198,0-7.712,3.181-8.13,7.356l-4.491,44.917c-18.741,4.868-36.658,12.3-53.415,22.152l-34.96-28.603
			c-3.248-2.658-7.983-2.423-10.951,0.546l-57.223,57.224c-2.969,2.969-3.203,7.702-0.546,10.95l28.603,34.96
			c-9.853,16.755-17.284,34.673-22.152,53.415l-44.917,4.491C3.181,207.826,0,211.341,0,215.538v80.924
			c0,4.197,3.181,7.713,7.358,8.13l44.917,4.491c4.868,18.741,12.299,36.659,22.152,53.415l-28.603,34.96
			c-2.657,3.248-2.423,7.983,0.546,10.95l57.222,57.222c2.969,2.969,7.702,3.205,10.951,0.546l34.96-28.603
			c16.757,9.853,34.673,17.285,53.415,22.152l4.491,44.917c0.418,4.175,3.932,7.356,8.13,7.356h80.923
			c4.198,0,7.712-3.181,8.13-7.356l4.491-44.917c18.741-4.868,36.658-12.3,53.415-22.152l34.96,28.603
			c3.247,2.657,7.982,2.422,10.951-0.546l57.222-57.222c2.969-2.969,3.203-7.702,0.546-10.95l-28.603-34.96
			c9.853-16.755,17.284-34.673,22.152-53.415l44.917-4.491c4.177-0.417,7.358-3.933,7.358-8.13v-80.924
			C512,211.341,508.819,207.826,504.642,207.408z M495.66,289.068l-43.308,4.331c-3.487,0.349-6.364,2.882-7.149,6.299
			c-4.817,20.948-13.072,40.855-24.536,59.166c-1.859,2.971-1.617,6.797,0.602,9.509l27.579,33.709l-46.766,46.765l-33.708-27.58
			c-2.711-2.221-6.538-2.462-9.509-0.601c-18.313,11.463-38.219,19.72-59.167,24.537c-3.416,0.785-5.95,3.661-6.299,7.149
			l-4.332,43.308h-66.136l-4.331-43.308c-0.349-3.487-2.882-6.364-6.299-7.149c-20.947-4.817-40.854-13.072-59.167-24.537
			c-2.97-1.861-6.797-1.617-9.509,0.601l-33.708,27.58l-46.766-46.765l27.579-33.709c2.219-2.713,2.462-6.538,0.602-9.509
			c-11.463-18.311-19.72-38.217-24.536-59.167c-0.786-3.416-3.662-5.95-7.149-6.299l-43.308-4.331v-66.136l43.308-4.331
			c3.487-0.349,6.364-2.882,7.149-6.299c4.817-20.948,13.072-40.855,24.536-59.167c1.86-2.971,1.617-6.797-0.602-9.509
			l-27.579-33.709l46.766-46.765l33.708,27.58c2.711,2.22,6.539,2.462,9.509,0.601c18.313-11.463,38.219-19.72,59.167-24.537
			c3.416-0.785,5.95-3.661,6.299-7.149l4.332-43.306h66.136l4.331,43.308c0.349,3.487,2.882,6.364,6.299,7.149
			c20.947,4.817,40.854,13.072,59.166,24.537c2.971,1.861,6.797,1.618,9.509-0.601l33.708-27.581l46.766,46.765l-27.579,33.709
			c-2.219,2.713-2.462,6.538-0.602,9.509c11.463,18.311,19.72,38.217,24.536,59.167c0.786,3.416,3.662,5.95,7.149,6.299
			l43.307,4.331V289.068z"/>
	</g>
</g>
<g>
	<g>
		<path d="M256.002,171.575c-46.552,0-84.426,37.873-84.426,84.426s37.874,84.426,84.426,84.426
			c46.552,0,84.426-37.873,84.426-84.426S302.554,171.575,256.002,171.575z M323.58,247.83h-34.136
			c-0.715-20.686-4.154-41.364-10.591-55.958C302.719,200.403,320.462,221.895,323.58,247.83z M233.159,191.87
			c-6.44,14.595-9.884,35.27-10.599,55.961h-34.135C191.542,221.893,209.288,200.398,233.159,191.87z M188.425,264.171h34.135
			c0.715,20.692,4.16,41.366,10.603,55.962C209.289,311.605,191.542,290.11,188.425,264.171z M266.224,307.338
			c-4.589,13.767-9.302,16.748-10.223,16.748c-0.921,0-5.633-2.98-10.223-16.748c-3.891-11.674-6.276-26.774-6.873-43.167h34.191
			C272.499,280.563,270.116,295.664,266.224,307.338z M238.908,247.83c0.597-16.393,2.981-31.493,6.873-43.167
			c4.588-13.767,9.301-16.748,10.222-16.748c0.92,0,5.633,2.98,10.223,16.748c3.891,11.674,6.276,26.774,6.873,43.167H238.908z
			 M278.849,320.13c6.439-14.594,9.881-35.271,10.595-55.959h34.135C320.462,290.107,302.718,311.6,278.849,320.13z"/>
	</g>
</g>
<g>
	<g>
		<path d="M256.002,77.89c-44.587,0-87.251,16.556-120.134,46.619c-32.668,29.866-52.966,70.484-57.154,114.373
			c-0.429,4.491,2.865,8.481,7.356,8.91c4.521,0.431,8.482-2.865,8.91-7.358c7.955-83.35,77.179-146.204,161.022-146.204
			c89.2,0,161.77,72.57,161.77,161.77s-72.57,161.77-161.77,161.77c-83.845,0-153.069-62.856-161.022-146.208
			c-0.428-4.492-4.432-7.785-8.909-7.358c-4.493,0.429-7.786,4.417-7.358,8.91c4.188,43.889,24.484,84.509,57.152,114.376
			c32.885,30.063,75.549,46.62,120.136,46.62c98.21,0,178.111-79.9,178.111-178.111S354.213,77.89,256.002,77.89z"/>
	</g>
</g>
<g>
	<g>
		<path d="M256.002,138.894c-25.202,0-49.22,7.89-69.452,22.818c-3.632,2.679-4.403,7.793-1.724,11.425
			c2.68,3.632,7.794,4.404,11.424,1.724c17.405-12.839,38.066-19.626,59.753-19.626c55.563,0,100.766,45.203,100.766,100.766
			c0,55.563-45.203,100.766-100.766,100.766s-100.766-45.203-100.766-100.766c0-21.688,6.787-42.351,19.629-59.756
			c2.678-3.632,1.906-8.746-1.724-11.425c-3.633-2.679-8.745-1.907-11.425,1.723c-14.929,20.234-22.82,44.252-22.82,69.457
			c0,64.573,52.534,117.106,117.106,117.106c64.572,0,117.106-52.533,117.106-117.106S320.574,138.894,256.002,138.894z"/>
	</g>
</g>
</svg>